HIERARCHY
ROOT Hips
{
  OFFSET -115.816 99.2911 83.0964
  CHANNELS 6 Xposition Yposition Zposition Zrotation Xrotation Yrotation
  JOINT RightUpLeg
  {
    OFFSET -8.9458 -8.66707 0.101652
    CHANNELS 3 Zrotation Xrotation Yrotation
    JOINT RightLeg
    {
      OFFSET 0 -44.4227 1.3727
      CHANNELS 3 Zrotation Xrotation Yrotation
      JOINT RightFoot
      {
        OFFSET 0.253549 -42.0924 -1.46059
        CHANNELS 3 Zrotation Xrotation Yrotation
        JOINT RightToes
        {
          OFFSET 0.04 -4.41509 8.4991
          CHANNELS 3 Zrotation Xrotation Yrotation
          End Site
          {
            OFFSET -0.08 -0.137448 9.77979
          }
        }
      }
    }
  }
  JOINT Spine
  {
    OFFSET 0 11.8905 0
    CHANNELS 3 Zrotation Xrotation Yrotation
    JOINT Spine1
    {
      OFFSET 0 25.6574 0.127663
      CHANNELS 3 Zrotation Xrotation Yrotation
      JOINT HEad
      {
        OFFSET 0 8.73416 0.011341
        CHANNELS 3 Zrotation Xrotation Yrotation
        End Site
        {
          OFFSET -0.29 12.7742 2.51395
        }
      }
      JOINT LeftShoulder1
      {
        OFFSET 8.99 -0.362252 -0.22
        CHANNELS 3 Zrotation Xrotation Yrotation
        JOINT LeftArm
        {
          OFFSET 10.2827 -0.00338 0.322123
          CHANNELS 3 Zrotation Xrotation Yrotation
          JOINT LeftForeArm
          {
            OFFSET 32.7669 0.099144 -1.42434
            CHANNELS 3 Zrotation Xrotation Yrotation
            JOINT LeftHand
            {
              OFFSET 27.5643 0.085362 1.02216
              CHANNELS 3 Zrotation Xrotation Yrotation
              End Site
              {
                OFFSET 16.7443 -0.6 1.50291
              }
            }
          }
        }
      }
      JOINT RightShoulder
      {
        OFFSET -8.99 -0.362252 -0.22
        CHANNELS 3 Zrotation Xrotation Yrotation
        JOINT RightArm
        {
          OFFSET -10.2827 -0.00338 0.322123
          CHANNELS 3 Zrotation Xrotation Yrotation
          JOINT RightForeArm
          {
            OFFSET -32.8971 0.099144 -1.42434
            CHANNELS 3 Zrotation Xrotation Yrotation
            JOINT RightHand
            {
              OFFSET -27.4921 0.085362 1.02216
              CHANNELS 3 Zrotation Xrotation Yrotation
              End Site
              {
                OFFSET -16.6312 -0.6 1.50291
              }
            }
          }
        }
      }
    }
  }
  JOINT LeftUpLeg
  {
    OFFSET 8.9458 -8.66707 0.101652
    CHANNELS 3 Zrotation Xrotation Yrotation
    JOINT LeftLeg
    {
      OFFSET 0 -44.4227 1.3727
      CHANNELS 3 Zrotation Xrotation Yrotation
      JOINT LeftFoot
      {
        OFFSET -0.253549 -42.0924 -1.46059
        CHANNELS 3 Zrotation Xrotation Yrotation
        JOINT LeftToes
        {
          OFFSET -0.04 -4.41509 8.4991
          CHANNELS 3 Zrotation Xrotation Yrotation
          End Site
          {
            OFFSET 0.08 -0.047448 9.77979
          }
        }
      }
    }
  }
}
MOTION
Frames:	9
Frame Time:	0.0166667
-117.389 89.897 35.0647 10.327 -8.85233 55.6913 -9.41991 18.5443 9.59892 14.674 41.0924 -24.5382 6.56329 3.11911 -0.718568 -21.7006 -21.0406 -7.29136 1.65516 9.5162 8.56592 -2.07791 19.3622 17.8112 0.0440793 -4.14669 -18.1537 -7.95139e-016 2.78299e-015 -0 -69.1545 -25.3569 -24.2923 -40.686 33.2272 -74.8587 13.1488 6.09143 -29.9289 -12.164 -1.33978 21.4471 17.5276 -9.64156 74.9063 -21.9466 -30.0826 8.35171 21.3667 8.41136 -12.0345 18.4128 -19.3595 4.17043 -2.08377 27.6713 -15.1253 -17.4449 7.35227 2.23404 -3.86591 -14.1506 -1.91976 
-116.783 90.4643 35.7048 10.618 -8.62278 55.1122 -9.81235 17.8238 9.64602 13.6282 42.7804 -22.3106 7.86295 5.29017 -0.974954 -22.1059 -21.3603 -5.61585 1.88737 9.87133 9.92992 -1.89122 20.0233 20.6779 -1.12908 -4.0302 -21.4878 -7.95139e-016 -2.73329e-015 -0 -71.6288 -26.7861 -27.5745 -43.9716 31.2491 -69.8268 11.1995 6.48536 -32.0156 -16.604 -2.49399 23.6545 13.0973 -9.28486 74.1337 -14.3522 -40.2052 5.58466 26.4729 6.42051 -18.7721 17.3799 -17.7972 1.37749 -2.15313 26.5447 -12.5127 -16.8825 6.68979 2.06572 -3.64457 -13.6743 -0.281524 
-116.276 90.9206 36.3314 10.9554 -8.60919 54.8358 -10.3673 16.9577 9.68975 13.6001 44.5905 -20.3364 9.10783 7.67515 -1.2887 -23.5572 -22.5445 -4.65838 2.12552 10.3983 10.7969 -1.57575 21.0578 22.5225 -1.48442 -5.67578 -22.7648 5.30186e-032 -5.09386e-015 5.96354e-016 -73.8486 -28.4475 -30.6789 -44.7407 30.5433 -67.4831 10.5755 6.57454 -33.2336 -18.0885 -2.98724 24.9297 15.3335 -11.3402 73.7305 -14.1601 -43.0408 6.2563 31.9614 2.01928 -30.8347 16.6116 -16.3369 -2.0079 -2.46856 25.6245 -9.59984 -16.7004 5.68216 1.90213 -3.28151 -12.549 1.1282 
-115.823 91.2472 36.9723 11.228 -8.7286 55.3479 -10.8998 16.011 9.36773 14.6541 46.4144 -18.48 10.1039 9.28785 -1.55311 -25.3602 -24.0196 -4.26505 2.39956 10.9642 10.9937 -1.07145 22.2223 22.9699 -1.05909 -8.78716 -21.765 1.106e-031 -6.19887e-015 1.02227e-015 -75.2573 -30.7217 -32.755 -42.943 31.7359 -68.3623 11.4146 6.30032 -33.1208 -17.0909 -2.76704 25.1039 19.3995 -13.2037 73.2768 -18.2897 -40.3129 8.87796 35.6682 -0.476872 -35.1814 16.2252 -15.2861 -4.78245 -2.7376 24.912 -7.82427 -16.8913 4.70126 1.78637 -2.99948 -11.5342 1.79032 
-115.403 91.4486 37.6134 11.381 -8.90792 56.7457 -11.305 14.9332 8.54281 16.374 48.2222 -16.4618 10.8424 9.66642 -1.69585 -26.8913 -25.2653 -4.09616 2.76438 11.5017 10.4841 -0.258296 23.3892 21.9232 -0.338907 -12.3015 -18.7452 -1.59028e-015 -2.36678e-015 -2.98177e-016 -75.6703 -33.6691 -33.4722 -39.3423 34.2061 -72.0815 13.2559 5.84979 -31.6621 -14.7004 -2.15806 24.744 23.7661 -14.7003 72.4654 -24.1267 -30.4638 9.7257 36.8376 2.46197 -26.0408 16.1911 -14.8066 -6.07825 -2.66525 24.4422 -8.10174 -17.3483 4.05654 1.743 -2.92781 -11.2279 1.59401 
-115.005 91.5395 38.2122 11.4236 -9.12086 58.6676 -11.6212 13.5842 7.55293 18.1483 49.9246 -14.4906 11.4699 9.41858 -1.76809 -28.2065 -26.3342 -3.93836 3.26208 12.0243 9.44273 0.883933 24.5683 19.7435 0.136978 -15.0962 -14.5595 -1.59028e-015 -2.38542e-015 1.2921e-015 -75.3433 -36.8554 -33.0389 -35.2953 36.8481 -77.3258 15.3826 5.46942 -29.407 -11.658 -1.43409 24.6963 29.2606 -16.9813 71.6825 -21.2665 -18.7294 19.2636 34.7962 8.09516 -10.0222 16.3994 -14.8586 -5.7651 -2.17053 24.3429 -10.3571 -17.9323 3.62581 1.73916 -3.01827 -11.5031 0.900941 
-114.638 91.5458 38.7287 11.3739 -9.36868 60.4923 -11.9477 11.7568 6.90479 19.3485 51.4355 -13.0861 12.1556 9.51274 -1.88018 -29.7816 -27.5925 -3.93077 3.88292 12.5923 8.19532 2.23862 25.8479 17.1169 0.105003 -16.7828 -10.2066 -6.36111e-015 -5.66536e-015 -1.98785e-016 -74.7961 -39.3842 -31.9991 -32.0852 38.9321 -82.4656 17.2262 5.23844 -27.2627 -7.9766 -0.580984 25.2395 38.9485 -22.1724 72.6222 -14.4805 -4.5768 34.1275 30.4575 10.6482 -1.59939 16.7622 -15.2416 -4.49892 -1.44867 24.6761 -13.5293 -18.5069 3.06508 1.7098 -3.13391 -11.868 0.281023 
-114.326 91.4912 39.1468 11.2347 -9.64348 61.6883 -12.3525 9.27043 6.8139 19.4345 52.757 -12.4627 12.8378 10.384 -2.07452 -31.9103 -29.2104 -4.41286 4.56457 13.2737 7.05041 3.65612 27.3332 14.6769 -0.366364 -17.7267 -6.20537 3.18055e-015 3.08116e-015 -0 -74.5843 -40.3994 -31.0181 -30.3144 40.1853 -86.3314 18.4613 5.08423 -26.0571 -3.39474 0.529928 25.8733 55.469 -30.693 77.9369 -2.95213 17.5212 50.7515 22.5836 9.61004 -5.74989 17.2237 -15.7327 -3.28566 -0.810773 25.389 -16.2272 -19.0225 2.16127 1.61446 -3.17402 -12.0002 0.139433 
-114.104 91.3727 39.471 11.0184 -9.93109 62.0248 -12.8648 6.09022 7.16076 18.1563 53.871 -12.4292 13.1894 11.8894 -2.29299 -34.4777 -31.0061 -5.58723 5.2294 14.1129 6.16839 5.04276 29.0919 12.7304 -1.12206 -18.4542 -2.43388 5.51738e-033 -3.97569e-016 7.95139e-016 -75.0913 -39.7891 -30.7019 -30.0542 40.6577 -88.3499 18.8826 4.94573 -26.1829 1.92434 1.84959 25.9983 77.0467 -38.7884 88.2874 13.438 47.1673 60.5487 11.6128 8.68733 -15.6524 17.7488 -16.2063 -2.89161 -0.538411 26.4279 -17.4515 -19.5014 0.969719 1.46046 -3.13781 -11.9058 0.462952 
